<?xml version="1.0" encoding="UTF-8"?>
<!DOCTYPE svg PUBLIC "-//W3C//DTD SVG 1.1//EN" "http://www.w3.org/Graphics/SVG/1.1/DTD/svg11.dtd">
<svg xmlns="http://www.w3.org/2000/svg" version="1.1" width="1591px" height="350px" style="shape-rendering:geometricPrecision; text-rendering:geometricPrecision; image-rendering:optimizeQuality; fill-rule:evenodd; clip-rule:evenodd" xmlns:xlink="http://www.w3.org/1999/xlink">
<g><path style="opacity:0.948" fill="#fefffe" d="M 570.5,19.5 C 585.242,18.3198 599.575,20.1531 613.5,25C 627.057,31.5575 636.891,41.7242 643,55.5C 647.924,67.2711 652.257,79.2711 656,91.5C 667.165,123.342 688.998,134.509 721.5,125C 726.223,121.746 727.723,117.246 726,111.5C 724.5,108.667 722.333,106.5 719.5,105C 698.046,110.525 683.546,103.025 676,82.5C 671.861,69.7478 667.527,57.0811 663,44.5C 660.34,38.5103 657.174,32.8436 653.5,27.5C 662.848,28.4626 672.015,30.796 681,34.5C 687.083,50.4979 692.083,66.8312 696,83.5C 700.651,89.0703 706.151,89.9037 712.5,86C 714.776,83.6146 716.109,80.7813 716.5,77.5C 713.999,66.8326 710.999,56.3326 707.5,46C 719.185,49.9902 729.685,56.1569 739,64.5C 740.031,93.8299 736.865,122.663 729.5,151C 704.512,154.075 681.845,148.408 661.5,134C 654.52,127.358 648.687,119.858 644,111.5C 637.218,97.1551 631.218,82.4885 626,67.5C 612.106,40.6323 590.606,32.1323 561.5,42C 543.564,51.6728 534.064,66.8395 533,87.5C 529.389,148.131 554.223,192.631 607.5,221C 631.866,233.455 657.532,242.122 684.5,247C 681.167,251.333 677.833,255.667 674.5,260C 666.685,259.8 659.018,258.467 651.5,256C 629.51,248.673 607.51,241.34 585.5,234C 578.756,231.858 571.923,230.358 565,229.5C 558.657,230.629 552.491,232.462 546.5,235C 531.033,244.325 514.7,251.825 497.5,257.5C 495.272,256.781 493.439,255.448 492,253.5C 490.167,251 488.333,248.5 486.5,246C 509.508,239.249 528.341,226.416 543,207.5C 548.328,197.491 545.495,191.158 534.5,188.5C 532.803,188.899 531.137,189.399 529.5,190C 515.488,209.015 496.988,221.182 474,226.5C 470.248,220.664 466.748,214.664 463.5,208.5C 490.999,200.835 508.166,183.168 515,155.5C 514.98,133.167 514.98,110.834 515,88.5C 516.215,71.8575 521.215,56.5241 530,42.5C 536.489,33.9987 544.655,27.8321 554.5,24C 559.874,22.1604 565.207,20.6604 570.5,19.5 Z"/></g>
<g><path style="opacity:0.934" fill="#fefffe" d="M 511.5,27.5 C 512.675,27.281 513.675,27.6143 514.5,28.5C 503.765,39.3032 497.265,52.3032 495,67.5C 493.734,93.1354 493.067,118.802 493,144.5C 489.95,167.051 477.45,181.384 455.5,187.5C 452.344,183.048 450.344,178.048 449.5,172.5C 461.98,168.18 469.813,159.513 473,146.5C 473.882,143.211 474.548,139.877 475,136.5C 475.738,120.489 475.571,104.489 474.5,88.5C 474.53,72.3163 477.364,56.6496 483,41.5C 483.896,38.8596 485.396,36.693 487.5,35C 495.644,32.5609 503.644,30.0609 511.5,27.5 Z"/></g>
<g><path style="opacity:0.934" fill="#fefffe" d="M 455.5,48.5 C 456.497,48.4701 457.164,48.9701 457.5,50C 454.882,59.6566 453.382,69.49 453,79.5C 452.696,97.5062 452.696,115.506 453,133.5C 453.112,141.952 449.612,148.285 442.5,152.5C 434.468,123.379 431.302,93.7128 433,63.5C 440.133,57.8524 447.633,52.8524 455.5,48.5 Z"/></g>
<g><path style="opacity:0.93" fill="#fefffe" d="M 576.5,57.5 C 595.18,56.7616 607.014,65.4282 612,83.5C 615.676,97.5283 620.343,111.195 626,124.5C 639.564,145.228 658.397,159.061 682.5,166C 696.225,170.01 710.225,172.176 724.5,172.5C 722.846,179.297 720.679,185.964 718,192.5C 717.653,194.18 716.653,195.18 715,195.5C 688.981,191.716 664.481,183.549 641.5,171C 620.894,157.288 606.394,138.788 598,115.5C 594.461,105.218 591.128,94.8843 588,84.5C 583.522,80.269 579.522,80.6023 576,85.5C 572.14,125.611 586.973,156.778 620.5,179C 647.274,195.537 676.274,206.037 707.5,210.5C 705.399,218.205 702.065,225.371 697.5,232C 656.57,226.253 620.237,210.253 588.5,184C 561.408,157.628 548.908,125.462 551,87.5C 552.591,71.4228 561.091,61.4228 576.5,57.5 Z"/></g>
<g><path style="opacity:0.901" fill="#fefffe" d="M 893.5,125.5 C 902.833,125.5 912.167,125.5 921.5,125.5C 921.5,132.833 921.5,140.167 921.5,147.5C 912.167,147.5 902.833,147.5 893.5,147.5C 893.5,140.167 893.5,132.833 893.5,125.5 Z"/></g>
<g><path style="opacity:0.968" fill="#fefffe" d="M 786.5,129.5 C 805.836,129.333 825.17,129.5 844.5,130C 872.682,133.864 882.515,149.364 874,176.5C 871.5,180.333 868.333,183.5 864.5,186C 880.513,194.534 886.346,207.701 882,225.5C 876.714,240.762 865.881,249.262 849.5,251C 828.503,251.5 807.503,251.667 786.5,251.5C 786.5,210.833 786.5,170.167 786.5,129.5 Z M 815.5,153.5 C 824.582,153.086 833.582,153.586 842.5,155C 850.113,162.171 850.113,169.171 842.5,176C 833.582,177.414 824.582,177.914 815.5,177.5C 815.5,169.5 815.5,161.5 815.5,153.5 Z M 815.5,199.5 C 825.566,199.105 835.566,199.605 845.5,201C 851.053,203.263 853.72,207.43 853.5,213.5C 853.912,220.258 850.912,224.758 844.5,227C 834.9,228.391 825.233,228.891 815.5,228.5C 815.5,218.833 815.5,209.167 815.5,199.5 Z"/></g>
<g><path style="opacity:0.901" fill="#fefffe" d="M 1029.5,129.5 C 1036.5,129.5 1043.5,129.5 1050.5,129.5C 1050.5,170.167 1050.5,210.833 1050.5,251.5C 1043.5,251.5 1036.5,251.5 1029.5,251.5C 1029.5,210.833 1029.5,170.167 1029.5,129.5 Z"/></g>
<g><path style="opacity:0.945" fill="#fefffe" d="M 1061.5,129.5 C 1077.84,129.333 1094.17,129.5 1110.5,130C 1138.6,132.771 1154.1,148.271 1157,176.5C 1159.94,195.87 1156.94,214.203 1148,231.5C 1138.56,243.639 1126.06,250.139 1110.5,251C 1094.17,251.5 1077.84,251.667 1061.5,251.5C 1061.5,210.833 1061.5,170.167 1061.5,129.5 Z M 1081.5,147.5 C 1094.05,146.702 1106.38,147.869 1118.5,151C 1128.65,156.454 1134.49,164.954 1136,176.5C 1138.23,188.666 1137.56,200.666 1134,212.5C 1129.91,224.139 1121.74,230.973 1109.5,233C 1100.2,234.128 1090.87,234.628 1081.5,234.5C 1081.5,205.5 1081.5,176.5 1081.5,147.5 Z"/></g>
<g><path style="opacity:0.96" fill="#fefffe" d="M 970.5,155.5 C 984.232,154.344 997.232,156.844 1009.5,163C 1014.24,166.313 1017.07,170.813 1018,176.5C 1018.95,205.868 1018.62,235.201 1017,264.5C 1011.77,280.051 1000.94,288.884 984.5,291C 974.131,291.767 963.797,291.433 953.5,290C 949.099,289.089 944.932,287.589 941,285.5C 940.333,277.167 940.333,268.833 941,260.5C 953.479,266.661 966.645,268.828 980.5,267C 990.124,263.598 993.958,256.764 992,246.5C 977.194,255.633 962.361,255.466 947.5,246C 938.829,238.491 933.995,228.991 933,217.5C 930.867,201.757 933.201,186.757 940,172.5C 947.936,162.783 958.103,157.116 970.5,155.5 Z M 973.5,178.5 C 979.072,177.99 984.405,178.823 989.5,181C 990.701,181.903 991.535,183.069 992,184.5C 992.833,199.511 992.666,214.511 991.5,229.5C 974.11,237.388 963.277,232.055 959,213.5C 958.105,205.699 958.772,198.033 961,190.5C 963.769,184.895 967.936,180.895 973.5,178.5 Z"/></g>
<g><path style="opacity:0.941" fill="#fefffe" d="M 894.5,160.5 C 903.5,160.5 912.5,160.5 921.5,160.5C 921.5,190.833 921.5,221.167 921.5,251.5C 912.5,251.5 903.5,251.5 894.5,251.5C 894.5,221.167 894.5,190.833 894.5,160.5 Z"/></g>
<g><path style="opacity:0.938" fill="#fefffe" d="M 560.5,253.5 C 570.386,252.888 580.052,254.055 589.5,257C 611.69,263.782 633.356,271.615 654.5,280.5C 650.043,285.65 644.876,289.983 639,293.5C 621.511,287.67 604.011,281.837 586.5,276C 574.79,271.573 563.124,271.573 551.5,276C 543.24,280.047 535.073,284.213 527,288.5C 520.87,285.037 516.203,280.37 513,274.5C 528.624,266.766 544.457,259.766 560.5,253.5 Z"/></g>
<g><path style="opacity:0.934" fill="#fefffe" d="M 566.5,295.5 C 573.678,295.585 580.678,296.752 587.5,299C 597.281,302.724 606.948,306.724 616.5,311C 606.849,317.977 596.683,324.144 586,329.5C 571.763,322.301 558.263,313.968 545.5,304.5C 551.948,300.131 558.948,297.131 566.5,295.5 Z"/></g>
</svg>
